<svg width="14" height="14" viewBox="0 0 14 14" fill="none" xmlns="http://www.w3.org/2000/svg">
<g style="mix-blend-mode:darken">
<rect width="14" height="14" fill="#87888C"/>
</g>
<path d="M12.5265 9.50725H4.56081L4.96076 8.60134L11.6062 8.58795C11.8309 8.58795 12.0235 8.40945 12.0637 8.16251L12.9839 2.43399C13.008 2.28375 12.9719 2.12904 12.8836 2.01153C12.84 1.95369 12.7856 1.90711 12.7241 1.875C12.6627 1.84289 12.5957 1.82603 12.5278 1.82559L4.07391 1.79435L4.00167 1.41651C3.95619 1.17553 3.7609 1 3.53885 1H1.47219C1.34696 1 1.22685 1.05532 1.1383 1.1538C1.04975 1.25227 1 1.38584 1 1.5251C1 1.66437 1.04975 1.79793 1.1383 1.89641C1.22685 1.99488 1.34696 2.0502 1.47219 2.0502H3.15628L3.47197 3.71923L4.24914 7.90368L3.24858 9.71997C3.19662 9.79796 3.16532 9.89056 3.15823 9.98731C3.15114 10.084 3.16853 10.1811 3.20845 10.2674C3.28871 10.4444 3.45056 10.556 3.62981 10.556H4.46985C4.29076 10.8205 4.19403 11.1427 4.19429 11.4738C4.19429 12.3157 4.80961 13 5.56672 13C6.32382 13 6.93914 12.3157 6.93914 11.4738C6.93914 11.1421 6.84015 10.8193 6.66358 10.556H8.81853C8.63944 10.8205 8.54271 11.1427 8.54297 11.4738C8.54297 12.3157 9.15829 13 9.91539 13C10.6725 13 11.2878 12.3157 11.2878 11.4738C11.2878 11.1421 11.1888 10.8193 11.0123 10.556H12.5278C12.7873 10.556 13 10.3209 13 10.0309C12.9992 9.89175 12.949 9.75861 12.8603 9.66052C12.7716 9.56242 12.6516 9.50733 12.5265 9.50725ZM4.27054 2.82968L11.9727 2.85794L11.2183 7.5556L5.1681 7.5675L4.27054 2.82968ZM5.56672 11.9438C5.33397 11.9438 5.14402 11.7326 5.14402 11.4738C5.14402 11.2149 5.33397 11.0037 5.56672 11.0037C5.79947 11.0037 5.98941 11.2149 5.98941 11.4738C5.98941 11.5984 5.94488 11.718 5.86561 11.8062C5.78633 11.8943 5.67882 11.9438 5.56672 11.9438ZM9.91539 11.9438C9.68264 11.9438 9.4927 11.7326 9.4927 11.4738C9.4927 11.2149 9.68264 11.0037 9.91539 11.0037C10.1481 11.0037 10.3381 11.2149 10.3381 11.4738C10.3381 11.5984 10.2936 11.718 10.2143 11.8062C10.135 11.8943 10.0275 11.9438 9.91539 11.9438Z" fill="#87888C"/>
</svg>
