<svg width="22" height="25" viewBox="0 0 22 25" fill="none" xmlns="http://www.w3.org/2000/svg">
<path d="M16.6315 6.16146H20.2369C20.4549 6.16167 20.6652 6.24282 20.8268 6.38918C20.9884 6.53553 21.09 6.73668 21.1118 6.95365L21.6487 12.3229H19.8778L19.4377 7.92188H16.6315V10.5625C16.6315 10.7959 16.5388 11.0198 16.3737 11.1849C16.2087 11.35 15.9848 11.4427 15.7513 11.4427C15.5179 11.4427 15.294 11.35 15.1289 11.1849C14.9639 11.0198 14.8711 10.7959 14.8711 10.5625V7.92188H7.82946V10.5625C7.82946 10.7959 7.73673 11.0198 7.57166 11.1849C7.40659 11.35 7.1827 11.4427 6.94926 11.4427C6.71581 11.4427 6.49193 11.35 6.32686 11.1849C6.16178 11.0198 6.06905 10.7959 6.06905 10.5625V7.92188H3.26118L1.85285 22.0052H11.3503V23.7656H0.87934C0.756399 23.7655 0.634847 23.7396 0.522515 23.6897C0.410183 23.6397 0.309563 23.5668 0.227137 23.4756C0.144711 23.3843 0.0823072 23.2769 0.0439463 23.1601C0.00558542 23.0433 -0.00788193 22.9197 0.0044122 22.7974L1.58879 6.95365C1.61059 6.73668 1.71216 6.53553 1.8738 6.38918C2.03544 6.24282 2.24566 6.16167 2.46371 6.16146H6.06905V5.54707C6.06905 2.49451 8.42097 0 11.3503 0C14.2796 0 16.6315 2.49451 16.6315 5.54707V6.16322V6.16146ZM14.8711 6.16146V5.54707C14.8711 3.44514 13.2832 1.76042 11.3503 1.76042C9.41736 1.76042 7.82946 3.44514 7.82946 5.54707V6.16322H14.8711V6.16146ZM20.4112 19.259C20.4915 19.1716 20.5886 19.1014 20.6967 19.0525C20.8048 19.0036 20.9217 18.9771 21.0404 18.9746C21.159 18.972 21.2769 18.9935 21.3871 19.0377C21.4972 19.0819 21.5972 19.1479 21.6812 19.2317C21.7652 19.3156 21.8313 19.4156 21.8756 19.5256C21.92 19.6357 21.9416 19.7536 21.9393 19.8722C21.9369 19.9908 21.9105 20.1078 21.8618 20.216C21.8131 20.3242 21.743 20.4214 21.6558 20.5018L18.1349 24.0226C17.9699 24.1877 17.746 24.2804 17.5126 24.2804C17.2792 24.2804 17.0554 24.1877 16.8903 24.0226L13.3695 20.5018C13.2854 20.4206 13.2184 20.3235 13.1722 20.2161C13.1261 20.1087 13.1018 19.9932 13.1008 19.8763C13.0998 19.7595 13.1221 19.6436 13.1663 19.5354C13.2106 19.4272 13.2759 19.3289 13.3586 19.2463C13.4412 19.1636 13.5395 19.0983 13.6477 19.054C13.7559 19.0098 13.8718 18.9875 13.9886 18.9885C14.1055 18.9895 14.221 19.0138 14.3284 19.0599C14.4358 19.1061 14.5329 19.1731 14.6141 19.2572L16.6315 21.2764V14.9635C16.6315 14.7301 16.7243 14.5062 16.8894 14.3411C17.0544 14.1761 17.2783 14.0833 17.5118 14.0833C17.7452 14.0833 17.9691 14.1761 18.1342 14.3411C18.2992 14.5062 18.392 14.7301 18.392 14.9635V21.2764L20.4112 19.2572V19.259Z" fill="#F2C8ED"/>
</svg>
