<svg width="14" height="14" viewBox="0 0 14 14" fill="none" xmlns="http://www.w3.org/2000/svg">
<g style="mix-blend-mode:darken">
<rect width="14" height="14" fill="#87888C"/>
</g>
<path d="M2.2 6.33333V11.6667H4.6V6.33333H2.2ZM5.8 2.33333V11.6667H8.2V2.33333H5.8ZM9.4 7.66667V11.6667H11.8V7.66667H9.4ZM11.8 13H2.2C1.87 13 1.5876 12.8696 1.3528 12.6087C1.1176 12.3473 1 12.0333 1 11.6667V6.33333C1 5.96667 1.1176 5.65267 1.3528 5.39133C1.5876 5.13044 1.87 5 2.2 5H4.6V2.33333C4.6 1.96667 4.7176 1.65267 4.9528 1.39133C5.1876 1.13044 5.47 1 5.8 1H8.2C8.53 1 8.8126 1.13044 9.0478 1.39133C9.2826 1.65267 9.4 1.96667 9.4 2.33333V6.33333H11.8C12.13 6.33333 12.4126 6.46378 12.6478 6.72467C12.8826 6.986 13 7.3 13 7.66667V11.6667C13 12.0333 12.8826 12.3473 12.6478 12.6087C12.4126 12.8696 12.13 13 11.8 13Z" fill="#87888C"/>
</svg>
